<mxfile host="app.diagrams.net" modified="2023-07-25T08:14:06.595Z" agent="Mozilla/5.0 (Windows NT 10.0; Win64; x64) AppleWebKit/537.36 (KHTML, like Gecko) Chrome/114.0.0.0 Safari/537.36" etag="TNuRzxkqr7S3TJ-Hhj0P" version="21.6.5" type="github">
  <diagram name="Page-1" id="N3T4MVhuorV3H0bOBbQx">
    <mxGraphModel dx="880" dy="452" grid="1" gridSize="10" guides="1" tooltips="1" connect="1" arrows="1" fold="1" page="1" pageScale="1" pageWidth="850" pageHeight="1100" math="0" shadow="0">
      <root>
        <mxCell id="0" />
        <mxCell id="1" parent="0" />
        <mxCell id="jrJqLl4sHzsxgfpdWQpS-2" value="" style="shape=image;verticalLabelPosition=bottom;labelBackgroundColor=default;verticalAlign=top;aspect=fixed;imageAspect=0;image=data:image/png,iVBORw0KGgoAAAANSUhEUgAAADwAAABtCAYAAAD9LgIgAAAQyElEQVR4nO2da2xcx3XHfzP7oJYviRRFPUg9qCdV2pYEU3Yl2XJcPxXUkmHAqNMPkT/oQ+IAtT/UCVAnrgvYSIH0QxC3SL8YhmG0DoymaVwVcusqsWy1lkiKomSTXL5fa5FLirt8Lpfce2f64d673DUfu0vuyo6qP7Eg7nJ37vnPnDlz5pwzl0JrrbnV0BqEuOW3BXDnqmGlFFprtNYow+DmzVFGRkaYnp7GNA3y8vJYt66EDRvLKS4uRnylA4QQC97LBnJGGCzS3d3dfPy739PQUE9PTy+h0CiGYeDz5bN161Zq7r6Lhx56iNraWoqKiuLfzQVZAJErlZ6ZmeHixYu8/fbbXGu8SnRmxtJkaY+c1mhAetxs2rSJU6dOcebMGdauXWsJ9odAWCsFWmOairq6Ol798U/o6++z3gfQQCIPbV1qwJvn5dSpU7z62mt4vV6ky4WQ2Scts9WQUgqtLEah0ChvvP463d1d82QhmWzCtQDm5uZ4771f8e6772KaBlY3ZB9ZIyyEACEwTYNf/vIfaW1tzVgtXVLy1ltv4fe35Uyls0YYrJWmv3+As2fPWtcIMpkwQgrC4TDnzp3DMMxsihZHVgmDoL6+nlBo1B7xzJZbIQSmYdDc3Ew4HM6uaDayq9Ja0+b3s3Cypg+lFeFwmNHRm9kSLQlZI6y1RqOZmp5ipYZfKYUQEtM0mZmJZku0JGRZpaGgoHDFhNGWprjdLvLy8rIrmI2selpCCHbv3r1iN1lIa9IXF69l/frSbIoWR9ZH+P7778fny1/x991uN/v27qWk5A+AsNaa7du38cQTT9huQyZDLVBKUVhYyKOPPYbHkxs3P6tGC8DlcvPii39B1Y4dKGVa3tdSU1rbHhoarRVut4dnnnmGw4drv/mOhxACYY9oZWUlL770IlVVVUjXMrcQ4HK5QINvjY9vnzjB97//PYSQqESXNIvImt4IIdASJAKtBX/yyCMIIXnnnXf4/Np1DMOwjFnCBkJrjYlmw8ZyTp06xenTpykpKUVrnZONA+Rwe2iaJnNzc/T29nL+Pz/i3Llz9PR0YxgGylRIl6SkpJT7j/4xJ0+e5ODBg6wvK8uZKjvIGWGtNaZp+cPaVMzNzTE0NER/fx9GzKCktIRt27aztmQdLpcLIYSl3jlG9ggn7nW1tr0mEbdXzjXMh29M00QLkELafrdMsutJW2etrfbs3ytFxnPYNM2kGzr9JRCgFIZpWOQSxNUp5HP2RU6fCSGQUuJyuxFCxONjDmG3e+WmJ+NvOjeVUqK1ZnJykra2Njra2wkODTE1NUUsZiR1SrrjIbACmlIKvL41lK5fT2VlJfv27aOyshKv17vqOZ4xYaenp6amOH/+PO+//z6BQICxcJhYdA6lTJTWSSO8HBZ8SmuElCAFLq+H/Px8ysvLOXbsGM8++yxVVVWZipx8v0zncMw0CI2G+MXPf85v/vU3zEWjCLuFVKq7Ytjt76vex6uv/jUHDh3A681DoeMGzyGRSoSMHY9QKMSbb/6CX//Lr5mN5mYLtwA2i5aWVl555a9obm5BKTM+rTJBxoR/99F/88G//ZbobJSM4jergX0bl5T0dPfwxhtvEA6Prchip0XYsZKTk5O890//zPTEJC7LnmYq+sogLM4aQAiuX7/GBx/8dkX77pSEExu9ePEirS2t8Y2607lxYXIIOyhqvRCcPfsfTE1NZdxO2oS11nz44YdIDS4hEJq4sbqVgw1gKsXQ0CCdnZ0ZfzclYWcXNDMzw7Vr11Ba3ZrMn176JYCZmShtbW0Zq1ZqwoBA09/bR/DGIFqAQqNFDpch5pVmqVc0EqGrrR3TMKxO0OkpWVpGS2toampidm52heJnjmUGGKUUpmHS19dPOBTKqN3UcxhQyqS+vp5bOlGXG14NGs3g4CBf3vgyo2bTGuGx8BhdXZ0LlgGldHwtFEIihcQwjJWHaROg4zsuiWmq+Htaz+tucDhIf/8ARiyGEYulFSVJ6UsLoKOzk1AovMBWuVwSEBw6dJAtm7fQeLWRocEhYoaBy7U6bcgvKODe2nspLi6mvr6eYHA4biyVqZASJicn6erqJBabY80aX1r2K+UIK6Vob29ncnJigWOlTMXWrZW8/vrr/PRvf8pzzz2HL9+HzEJ4pra2ltde+xt+9rO/47vfPW17VFawzyUtsQ3DoKOjg4nxCSC9JHpKwtGZKN1dXcxEZkDNM9aAdLu4t7aWnbt2scbnY8OGDbjdbjtPvDqUlpZSWFSIy+PmkUcfYW1xMS4EbiVA2ltUBJ3tHYyNj1sGLY1+XpqwbRJHR0fp7e3FiMUWhGBMpThx4gTS7cLUip6eHiKRiLW9WyX6B/oZGx9HCEHZhg3U1NSglU6KmgAEBgYYvHHDcj/TsB0pJQsGgwQCAatHv6IyBQUFHDl6FIFgfGycnp4eYrEY2XA0+/v6CQ4FEUKwZs0aDhw6iJBygdrGYgaff/FFPH6WCssQ1qAUgUCAwcFBpJSWl5XA5fDhw+Tl5aG1JhAIcOPLG6uOOTkYC4fp6uzAMAw8Hg/V1dUUFBYu6EqtNY1XrqDtDU4qLEpYKYvYdCRCW5ufaOK+1+YipeTY0aNxcv39/QwFh7IWQDcNk2tXr2HGDAC2bt1KZWUlWiwk1draysTkZFrtLj3CAqanp2lpaU1+W1hlDEVFRdxzzz0AzM7N0tXdxfjYOELIrBgtrTVNTVeZjUaRUrJx0yZ27KyChOgGgBSC0VCI69evr9xKCyHQShEOh+jo6Ej+m530qqqqYvOWLQghmJyYpL2tjdm5OSsKkYU5LIQgMDBAT08PQghKS0vZs2cPHo8n6XOOg3LhwoXVLkuCnp5ebt4cSXrXMA1cbhc1d99N0dpiKzAwNk5HW4ftiFgRzdVCo4kZBnWXLiOUxuNys2fPHopK1s0LLUALgUTwv598ip41Ura7qGSO4WmorycWS25ECEGeN4/9f7SfgoICtNb0D/TzZSCwWo4LZJBC8vuPP8awLfDevXspKytb5LOKvr4+Bgb6U7a75FCYpsHluroFoyWEYOOmjezYvsNSX6W41nSNudhcppyWhaOeLS0tDA0NAVBRsYUdO3Z8RXW1La9JQ8OVlO0uOYeHhoJ0d3ez2Jq6Y/t2KisrrKyAVtQ31GdIJ31EItNcvdoIYK3HBw7YHa0tV1fPxxIbrjRY6Rtnk7EIlhzh+vo6IpFpvrol9Hg8VO3cyYbycrTWjI6O4vf7s7JDSoQVa7YEv3jxf+x9g+D+++5LyEBoTGUCVuC/taWFUCi07NK45Bz+5MIni0ZhCwoK2L9/Px63B601DQ0NjI9by1FWoa0kmxCCxsYrTE1Ng9bs3buXLVu2gL0ldblccafo5s1Ruru7l7XWi0o5MTHBlcYruOw5mojiteuouasGKQVSCD76r4+A7IcG7EIItNaMhcfw+1tBCLx5eRw/fhylFEore5m0RjgSmaa1pQVY2rmNE3b0XmtNV1sHN4dvopVaECuq2FbJ1u3bQUN0eobLly6xiPOzajjpEyEEsegszZ9/YZGQgocefhi3120T0whhOSAz0zN0tncQnYnatSMLiSeNsDMPG682EovNxePPiTh06BA+nw+Npq3Nz+joqN1RuanJAJidnaXV77ezHXDgwD1s2FC+wDiZpkFfXx8jI8NLtpVE2MnFNjc3E4vFEIt4TUePHrU+i+Czzz6bj1tnwZ1cCqZp0tvTy8jwMAjIzy/g8OHDi87VYDBIcHh4yXm86Bw2TdPOys2nWdBQXr6RmpoahBBEZ6Ncvdo0H9PKURGKg+HhIH19ffHc9JEjR5BSxl1dsKOZpmntnJaYxQtUWkrJsWPHyMvLQymNlC4r6+5xc+rUSfLzrSq7wcFB+vr64j2Z67za8MgIPT09cY06ePAAu3btQkiBlFamy+PxsL+6mm3btrGUGV2g0gCPP/44p0+fprKyAp9vDeXl5Tz99NM8//zz8QoAv9/P2Fg44bu5IeogGo3S2dkZzydt27adM2fOUFNTg8+3hjU+Hw888ADf+c6f2+7n4iMQj1om6vy60lK+94MXePjRRwmHQxQWFrF7927KytbboR+Nv7WVSfvmmZcZpsYC51FDZ3sH46MhSorX4cv38acnn+LuA/cQCASQQrJr9y4qKipw2TUgi0m0aJhWuiRFxcXcW3tvXIWkHV5RSjE5PklnZxfR2VlLRXIdn7eLP7q7uhgducmOnTsBgS8/n33V1ezdty9eFZSq4GVJTwvmq2mcDYRzciUQCGR9d5QSAsLhMJ2dnYu6jlrrtOq8ltw8zBujZPIIGBjoZ3Bo8FYmXgBr9Wi80rggu+HIu+q4tEMysaFoNEpXVzfjY+M5T4InwuHX1NTE9PR0ktORyTnFjD3+SCSC3+8nZqSOLmQNttXS2goW9vb2rripjAmPj4/T3t6eU1dyUdikY4bBxU8/jS+PmSJtwk7jN/oH+HJgAInIyaZhUQhsB8OKmX32yUV0zLRSP4mqnIY8adV4JNY5NjY22nFqkXNnYyk0NzczPBy0q3tyVKflhEMb6huIZ6W/JsxEIly5Ysevsl7jkTBXQqEQfr9/vlzp6+IsBJcvX15RliMtlXZIX7p0ifBYOKFk+OuBUorr168TiUQyFiLNohZrHsej+05g4GtiLIUgGAxadVq5qLXUWjMxMUFdXR1SyLgzkvjjfA7EgmBAopbEK3G0Ri0r7Py2U9vlyM6PoRUz0SjXr39OUq+nMQBp10sHg0EANm7etOjftdKEw2HmZmdRJNdLWxoCXq+X0rL1VgAhOsvI6E3kElJKKVi7riR+BjHRkzK0wuPxMDwyjBGL4fV606WRul7aOawxNTVFIBDAtcRaFJmO8A9v/j0fX7gQXy/nG7GWj/vuu4+Xf/Qj8n0+rjY18cpPfoxcIjS0vqyMv3z5ZWpqamzC838zbY0pLCykoqIioyMBKT+pExqvrq7GLRffkUxNTlJQUGCrrkr2be2C0MKiIqqrq8nLyyMUDi3rKXk9Hnbt2kV1dbVVeZDQnkLHLXSmJ2FSEk43EyikjMfBhEgu3HZCR46T75Q7OYesF4NT3ihcMh6ujcuEWHGGMuunS7/puEN4pdAClK118VpqPX+NfanFvDmTy5nLRJsnsufI5nSEl1oW43XlK2GxSuZ3VPp2xx3CtzvuEL7dcYfw7Y47hG933CF8u+MO4dsddwjf7rhD+HZH9h4ghpXzkQi0ac5X4dq/nev4EWCtrYNfyzSYWMcpEt5fDbL4iDjrLKKQidkmC85ZRC2snJLGSqWkKkSJV+dkS0iyqdLCKmhTWNHLxFplrTXaSb5J57CkRC9XuW4H7rN1tC/ebrYa8nq9lJeX47JTMc7RVmdUATZv2YLH40Wh2bhpIz6fL6lnnMp2rTUlJaVWXXaWs+5ZI+z2eDj+rW+xfkNZXIUd9RVSUFRcxJMnnrTPKggqtm7lyW+fQNhngZ0HjMUM6/nxR44cYfPmzdkSL44sWmlNbW0tL/zgBWtk7LyQEILi4mJe/uEPOXDwIEI4h7AEL730EsePH58/wCkEXq+XBx98kOee+zOKioqyqs6QRro0XViHLjRSg7+llbNn/52BQIAtFRWcfOopau66i5gy7Cp7i5w2TCbCY5w/f566ujqU0hw7dozHHnuMwuJCa94nPLAsG8jpQwAdNV1O2MTDJbfiIYA5/bcHaadaM6iVXC1y5mmlS+BWkoUcqvQ3Ff/vfOn/A/waHmK/H+9SAAAAAElFTkSuQmCC;" vertex="1" parent="1">
          <mxGeometry x="250" y="335.48999999999995" width="30" height="54.51" as="geometry" />
        </mxCell>
        <mxCell id="jrJqLl4sHzsxgfpdWQpS-3" value="" style="shape=image;verticalLabelPosition=bottom;labelBackgroundColor=default;verticalAlign=top;aspect=fixed;imageAspect=0;image=data:image/png,iVBORw0KGgoAAAANSUhEUgAAAHoAAAB6CAMAAABHh7fWAAAAY1BMVEUAAAD///+JiYlSUlL7+/u4uLju7u6UlJQtLS2enp7p6enCwsKlpaV/f38lJSWhoaH19fUdHR1eXl4yMjJNTU1ZWVnV1dXIyMhERERsbGwRERFycnJkZGTf398JCQl5eXk5OTlpSCWAAAADm0lEQVRoge3aaZuqIBgGYDSVXDItt2z9/7/yZLkAvoALMOfM8fk019R4ZwPI8iKLTIjz9IG05JHmOKQwNPzoYU0q4WMPot1YN9wkdse0bQJuYrP005SM0JOmj+ZkhI4kfTcpI3Qn6MwsnQ10aVZGqOzpq2n62tFeappOvZYumBcy31Ucn21MRUu79CcqLA0p6G/WbWlM/jL2ZFdZFo8ap3FL2+zn0RLqu7UBOg4WXbc8CBI5zVuCWEJnzhKZbahMPn3JIZsaRO8W0ZLH3r65qLP7jfQtOgKJsAH6CL/kLaDd15lKVoppH34pmE/TQ9wnfFsp7VRjemeIPo/psxka6i+RIXo8f7Dha2ugrSSgkvBl5fSMbPRGL6SL54lNfriboDkrEni6qnYg3SEwN/10AozhTeC524d2Eij3+V/4BaafkKx4gpTsoYtUcAdQPTcrx2sn3pooEtMvayY9I84l5ietCo30e/YnyPeZp42W5yfuOtB613B36OPOpL3IFyYi1qS+UEb7efSErbShq6nt1zc5PQyqzRXOOzDZbJo3hpOpPZL2LQfKgofmSU5XDk2DWUBP+F8PazDFs5TEx8L4RAv/PXOzjf6P6DIUhtzeUEvLh7N06F1q6QknA7me0WzJGK6I5q0+yLz6jQYjay4yw9a56pXmBX4Ad7kRTfyH+7XCPdK5dAYfAVwN0ILopDGLMbQ1hV529iGZ0nz2GaVnH/WyE597JMi3OiKoJTSvoa4PdToP0g8t54rseRRIo1rL+Z5bT6DfY/PVVpzrC2h4EG0gG/0L6cflCVWeGKAP7zmUU44LqzpaMvivyBMaTpp0BQPaCpAe3fb5gX3l2NKhLpp/QBq2dKCLzrthdHRzQUsnwNGpkvSFJmxrqpKW1tfO2lmqxzbxppV9aU8X/Z2qB6MtIa+nNXav3I8Oo279uemuwM9INWWX2CJpbY0cSkDRsnoalelmYH0d6V1XD2NS9QeEQ/Vsgmv5H65NjYcTeKJm2ArwSy/8wuQsn6Tfz7cijMTbkzb3q6lt8V9GYUGvbGhanoBbApnOXbds9EZv9F9CjyYcfWaX3Urp8Hbek+HJCFFvO99C2ZUldDLhkI+Xk6hWS06vkHmFJBPplZX6ghpMKb2yUv+6gp5wsCnKaQWdr6Nz4cU3eqP/dXpN5+IUnU3NZQUNFInPiXiPWUxDVeLTw6mLm0Zbgbi4SJi9ZNoimyo4/sIbr3zZAc4fI15NTyL2Bu4AAAAASUVORK5CYII=;" vertex="1" parent="1">
          <mxGeometry x="415" y="293.98" width="50" height="50" as="geometry" />
        </mxCell>
        <mxCell id="jrJqLl4sHzsxgfpdWQpS-4" value="" style="shape=image;verticalLabelPosition=bottom;labelBackgroundColor=default;verticalAlign=top;aspect=fixed;imageAspect=0;image=data:image/png,iVBORw0KGgoAAAANSUhEUgAAAEwAAABLCAYAAAGtlVEFAAAAAXNSR0IArs4c6QAAAARnQU1BAACxjwv8YQUAAAAJcEhZcwAAFxEAABcRAcom8z8AABbgSURBVGhD7VsJeFVFsu4Oyb0BBGZwdFQcxxF9jjr6PnF54oyDIpvZIYAsznMBwTcqazYStqgooCDCiIAEyE5C9oQsECB72AdkU1HGBRT9GJeMhOTee7peVZ+++wlZCKgz/N9XX3LP6dOnTnV1dS3drMPgidpq+guxZpAXPKHt4ed4kgYQ7wssMPOeb6t757PHNns35sG50Bzt7AV7lr9FnEvPPLQIWFCB99MbAFgikh2ihoNll59XQ7pOpH7Sa/MaeQYAT9fOqksSxM6GVQPdO6AnIYIBbGVADejD5MftZX6qiRPEvGxENDQD2OqGX6lbFxWZcAP9gVGsi/ztiRfylgNL0WUF76EoBpd+IqrY7fImgRiG/fiV85Xk08VtbD24jY5sJGpdBIkQFexuEodWxQ/oF3Zz4Jkuw6Ig5TjfX79uF6T8ocBTcUSIjR3MV17QdvJ/fl5zPdiiUY1QfXg4kpK+bGCHLda09WxUN6fkPRt0GhqrmRR0+5FkDbPzzhNtp3j4NmQ1R7LZHO13t2zTGnhQdnbItNlgXeMrB8ZOcAgVvBrHhWZEkgAaOFtmF/fBcwUPzD5hFxbsxFHf49OiwKhjmMqgS5JNzgN12Yl1qwfDmsmP6Zzsc9cOIzTVIFc4b7eUD8ZJ5PnigDJgj1SgnESrwyh2sp51WbfCfRPelJ/fNMX8mbrlgocrwQfNikP4BqrJ01Dz6N6gNOCBOTS1W34xvM+heboueC3G16l0dvrrbsfLWJK2QD3WOmAOW8jDtwMPQzUfXoKEohi55U51+ycCUct+q/7tGHia9q76VwJe9oemaFOo+tk28Hw1YiRk+o2CZyE5z3w7lf1CNhhRESz/tgaowaFGw0gdPf1WAohI1oOFlSyle3JKEYLzAI6dRyUkHiuSU8k+JyWhmpDZO7D9riaam/QSqMc2M3Gm4GerJ92By52QnzNwu2wo9SzW/LK6LcFTNSE7y3O+8LvprLe67YRdKdmQMvcl0AOinqWIeg6T3loND6ypB5jnyd2ozF72zjbPvhe0Wv69umMIEoV9gKDSQ3aijr3+7NgXAWKR/Tkoi8wWli0FrZo3sXU4b9GuOQbFDrywnD5N7MQb1KgVYGffyvZIlsUmj/b99/2WBRRCVvlonf0NtvfUHUPAPgY3jk0AS20XnQFPSJkNyXDIQl32xjoRwMducVgR2Gs0WOEVALucgiV3iS3Tl347cHrlynvpqG9BOXBdeCJYKthD6rY7pG2vZbD5lQCwRJugaao/mIPydS4e2wTSSbK/DOnxUjRJ54PYhcZRKWSfEQmOz3GQvTPli7QKmK13xgLRKHp2thG5y25jR67wDS5q4iPKdEsbXg48pKBK3bqMzgMcRO1C14T+/3AYM5+LMPeVNy42cA4s4DiHpEdJ2pZoa5bXg3OW8pE7cNxLpPHaO4n5QTya11moZDF+j9O1Tkdt9UN7WbL7PCKS7ngq3ENt+OhqXaPDioGF5fS1VrAAsY+vlR0g8N45ut/j8S0gPjOw8+3B6W1XfUeTngwg+trQHGGG5YumwLLFU+FcdFewRvvJKWeNNQtqj3M6QexlkfQ/HEZnEVewYVnon6CjtLViSOOBrFvQgcT+qrC/VSYQ03u2k8Hg/F/Lqajm9etLw8CW4O7i2okiiKYZZqu2i9drNXwL0ucvVSyTBsVNuuhgNu7sCs3T3J+3RJuPqre2gsCsm9AuOI0NEhtaKr/eSsyh1GBeC/61AXDJXk8+QMGWYNA26b65/KBI7E9JvDnKdFo1bxl8JLqILkxJxgaVS6cV0PyKGnadatou0IpD3lBAqjPKkpJEycJUDrYMn3GqqQEGbRvtxlBAOSyeOAKsM0wAGBBaq9kI1bJDgKMMTEnN7ozhYk+jQR+tmnkDlTyBFF3LR5FPRRHPQCL3CxV2ZeXU9q8dHsC+P5YTCRnRanzkX/otKvBaXAsuHkHsYs9aqnzhzNaeGDXps4r8G/l1yRjDJYv7VNMOQcaExFgd9q1mO5F1mR/QoqqaGUOPTtVQhuJUtxtSoqwOrLh2JIuT6LBgNJ/n7P/hKqm7ksG9LFa1bAGB2SGOB0M8GCOiSC9Na+MURySJBykilM8+W+tgSvYflAf1GbeSXyftYKv4tPDqEMqhSLHjcPZIatATVElIuAIMeGcH3LHmMMBBHBKcFGI/W/9Vea+RbFjxEDbtQAxPFSdcAxs3Ik/srW+Ar/oBlpdNA7R/mnpt2wHHdB0gsq3zNrDkj7OhlW5ScKPBG71cQgfhSLAEMVa9qmOAD9B99LDYkik0J4YMuRJ52a7MbSKp2yarrjsHFGThuvgVUNQyC+1OIHqRRsy40pBM4CXITLp4QXVziTEq08RGZnRVvy7jMi4axHH2v+rfnw7EDnYzrYdNKuMt5nW9V964pNgoxvMc7ZD65QX0TPdZyd61lBjqVGwQfXi6OEXhs8N6p4vf0C0+YgvwkRXAgnOkz4ZG+AgyB/DKRWaMp2vHZdrCbsGJMMZHt8ifB+VmOwwqhnDqEQYvmwepfzGOyPgdC83tvISpqGC3+BQYr3csU+gLcEjOMzxEuTMh+XrEtJcnW7az/5H3h2dfzYeXojSLoDy9X5G8diFApgbDft2xkzEkeheSIfIy0gC0SB+wxJj1tFVoQRgL3fyKfK6a75GeyRFctpLE1XjJlwWW44JfAofybgCxm5+idh3C5Jkzb4f3lRNXhy/BRbsyfgDEL5kL2+MfkYUDWswp0j47sev1op6NwRem/VDCrrVU+z4vvVT6IHST/BMbwYax5FdbeqGbxMCW7AvWePOH6lXtg9SVRyqhsQYDU/S57Jl7IxJvo2us3CP4OzKzAYeY/DeVuiV6Pm8F9oMfQ3GEeu5cpPlV9bq2AePKb+3KTPUJiqqNGKMCK8WY1rd9T2jVvAxpNyVWmd1jdaFrUr8AWKZL2fH8XKRJBmVKQwRm/wEV2Om2IK16eyhY4k2ODskM2GLNDSKq6/XqKS+gWXmHYgQ7Y89vXuEmLZe+vlGPnB8oLasrU0T9Ji6RIRyFdKRT1hhzvGp+fswDE8sDMCc2yaDDzhhEYegWpUuPis9fzmTd1RMtYMAOXx6GAYgHYw9MXiTDLfLvLSt856rWbQbVGUj/LAtN8GXsNXDN+i+gW+JZyHolXGZom6NNW1TTFhCY+7InUwwpf/39+uzcxRtUy3bBUsH6A81smqXK5BDRjN01736ARa3FlME533gxNmSrTGjLvMUudqVq2m6IPRyyysLJrjkYI+qfUgdwCBk+L8J2OBkKygefoM3SflEFlVKYqlWHIGpY7MnK62QY6MpYbMEClCSao0rWTzX1xic110HEtAkw46mJcHj6jRhwoIJGoIJWctBq+MeqWYcg6lgfMiWhWfjRVDZG6pX0nRxeSuLb0nyeUU29IXML2MgShwpJMwhDNrGOw9dVV8HorPRtqlmHQNV/wOGkVJRcFWgyUf4CpWWZa6JSocxEGgIO69abGhODZCLCszcp8dsOqmYdAlSzX+r5NQ/aicOIQsBV4K+qqTfgIwZflF6pKzt+zbslE53Kii6PatYhoI6NJ0Zo6XKkn4hohHBVaYz0H6CaGuDRbRYWWABs8BaYPvsv7opqUCpvD0Qt+4ZSW6NnxsCvRyfB4iXhUgCS2XdwrZ3HTKqpN3hQdrJjVgbkAH+30cmYTnWqafuw+lQ3RqmBYZRSwH7VO8ZEzdAZO9rajKdsdWih40E+57g7YzScCcK5taaNoHyFfP6xLGffSDhCMkGoVfETqmnLkNUsejAwB9hq93yppBxiDm5SzVsFLuZnZE6N3HJKsLgyRtlwZAx9udtU8/MgKHciFaFHzoyGQxV3eRlESRnIXJpYpZ4wRoq4kz5CMmV/bvoBvVpJTA3KhcMFN6D/1g7DTfbMniNNKn3CkYdlGBXdtPYjeGTlNlhUFCV1A03LEQxyZ4RPixvChheO4cvPpMuknUcBQlIyzvANVuBLv9bT6Og4imp2h3pt60BjeA1tqbFPaTKIKcXjAWagPkR10T0CymYv4DD/jbHABqK3G6yCkSBUbkrYvXZSZ8STOUWyqF7PWoxLW4So8pkLtYo5cq0pve7i4FmRuXFPzJTeh6veOAh1lM8/YciUJNLVjgLXx3RizuZSarFTQ1R3YIHevpsbkeSovuzJFA61ekXHIer5Akjyzr+Oe2KGMTOe9NInToZoImxUsWhnoOlV039BvL+DKdrj9LsRa4wZ8aTn9+hMkS1L01JUl50L6yzzfHjJH2wxJnjw8YXGjHjSfJwEadpH0v+/2BBz/PtvmXLfXjZiq769gOIEqm+GFYNMrtAmr+D8f7GQojj1yI+IkXVd2T2r2xgjXsZlXMZldCIwEu2NLsRn8Cm6EbX8VEMVu0rd+g9GZmaLOyLRAeG2Gp+54n1+SFTzePpN15uj/f7bFmc+Rlk/bbbZggHpEvnAvw0yoRdLh6dwIS/lKVqjjANom1ce+Wm2L6lOoFrqCM5/gIWWzmRhJc+xQZlu2yRFTI8rm6LMFqCtX+jlNCFR5eVclPkN1eRniL/BFSxdm49R2zcyJvEsptiJdk0kas0YhOlCCckbyUdV0j5Ip8c0nCrb+Y0ssLCPbINojPD/o222+SRtwiIta4oyJWAQ76Nu/0wwUnTFKHKVLH0ZJNKNiKGWsWTh8Gd5cE6BI9R2Jao2BOW2bc9BYM6TfHjpWbmfK7QEfjEqdZG689MABp9/Env413CEwZyCeH1ztUvm14hkEQq1Lmr5W0JEsuJ/zexOhSbG5s3z4UG5aVRXlDsw6e/wEsGCNj1Ht23VbDQl76g4RbtUtD3cKmqYs0oblH0fVdEclTY6OoPBbnHGQBBH2FFRym5WLS89xH42AAXVJCP1ahWpU/pyF4PU9ePgzpXv6ZW6NBfC37etPQrrXntaFscomic7REVWnFZuJySMgMLZTzUqR2agnkHOtscpqfg9SxO5fTadvmvxwmExfZ9OAjasFHqHbYLVK4foGzUxLpZbgfbzL8Qhdmn25EoMK+7pE1R0vM/4HFi8ZISeDd1JORFkZjdtMUQhTDfLA1+0LxJmupCLkDwJ5viDda7fy9o+XCLww6QmUU7nfex3Dz8tdrMH2VqxdHJZClRtewi2lj8KI7Ky3Ap7VMfokXIWPq/+jb6VEgVKRRxbbheZd5bbkpA3sn3NMaYLynG3DcFZT+l7PXWVpzQKVTIDp87WBYdMWt/xPW9FsyXSKGe00k8X1AFFVFOmxDv2vbxsuiNDR2lqz7qKnUiAt6UfBW2nD0AZg+Yo7D/C+302XGVpy5QFFxD1dZ0LHpi1TtoVl4yunejoYK/wNDhT2QOgwFnza4lk1TXeHyyzzA3WWea05ll+YyDGfBOs9q6kovPaVexjt00pensCSxWF6JZYpUtilA20CyzzCGjlPigUHLxIYx7sRHmOpkjTTPW6zgEPys7QcxDugnIl2lEcHhEF8B5OuyycdqT+NLqKMVuMLiQc2aJzMeYLN76p4n6ejmaffDmVrSRhdUs6C/+ouxEgAweujZouhRZtanft1RA8KGeBrlnGgrITG1YCtz+1Qq9X2YtoqV3AGocMoX1Coz5Fddnp8E9qXDZuawns33G3/u56XEFLffQBi0JfLUq3n/+cdSUcmXsHnJh9E17DqY7X9KKyPpjNMf7jVZcdRFBOf70q7tzf2xJRXWNC3PPy1LFcxegskl5YvPBNMm2AKGZmrY4foUqBXICoXpjD4NNZN0DftcelG0OLgoNoixSu3K8vjpCCE7EouEhz0w/ju12rumw/ULuqZErQQECuxIaWwa0T/gaWOlwZVaWCfCWtks9XXV0y4Dsz7RWTYzt+77YJyYhIaBOWrsVZQKuqD2i7meNgS/sQmHsPDy1ycQI9CZ3CoEI0+BUw/5kxADEoqCIfWaGVmlXNk1RPlxz47l2075uOf5Bda2lFJaL7f86q0F0QdI+0at7Qod0R905+I6L7mBI51dgQpIByJPq7DXyD8yFo7Hyon/p7gDg6g6LX8rW8LuhayA0Gzeg3yR2BPwZELfszOdQkhCn5y1T04S00ElbP5O/h88rrddtLM+M9HOzdrG0ngF2BXvVq2sYmd+jvQIpFIuOJAqLdF3ZjKZftKbgKpqCw0KOmVRJdgY4VpDsJ5IqgpnxBTqsUBNL6kqdg6KZSuDX9GPTbuA+m5i2Djyr66osE2Vy0eVoJ+m6vYTD/omma6qrtwE7WyqlFnakOxQ70bdb7gnWJH1he95NOKhQjQyiopcXT4eqUr4Dp2zorVDc/CiCTmXBafkJOr4N/JBm6KXK9LiMU/C6qc9JqiSt6hOqq7dCq2XzpddPWFpzbco4rgy5fTiOH90ZlZ7irPBpRnmj7J0s+01N1dclBpWtRxwVtXHITjBFRYZi27LyKM4aijXk4YzpyxLIk685BkYsnQd/x78IVwzOgN3ryf5r0OiSveVhqlKXODNemnjLeUIDOJNtga+VI0cUDCizZPjukmcCQranSDxq2ddMHHl0fx1QkoumY3QW0GeiLRZlt6Fi3eaeGE/PAB1fDD2S10WV1pONMbGAu9Jy1y7iyTUSetzw3Ix5VvV0y9E488+IDxX+HRVvj4M2VI4APK8CFa7sM31hAES5gZfKs2B8nL4JvK7vriQMSGmoZxa84NYtVVx1AcM4Trofe3GhoBvBXP29ZaDRFKUG43vas6u2ig6+3LpWhEvFERXfarmDEOxILzEcBFsKxfFwhKXFA6R+yebXsgk4YUhxZaJQFZUM2AVtw8jwCQ6JtC7RLOE37mK0SHfegW8M60Q/jygbJC2l3og34mDLgAe67rDyJXKY1bw/Rj2aio40LxWLV4wWANg0HZR+XmUx6CYZJtP97zoIxEFyIfpr9/Of5iARHqet07TRLtAaoni8cKWIC9tkkU+Kum6tIcAtP6RpGW4o8BMVD0OnGaXrfpMVgQ++e9rKjG1Kieu0E3LPa75fhaR/2m7QGVq4I0FWYjCfS2pIJUmiGxh9JpqMpPKHYzf4XhbegZO736CCuQJ/pfrwiy2fnRbEwszQxkPa08FTNKitP5/HgpabRij33OPDRGA8HZMsdaiwEp+LEg7A5b4CeZMTFQavipeotnQt0ZnOV6jpWGOnXoOA+rLgFnszZAFfQEVUlpL8sT4S6ef2hMRpXJ8q+0sn0KD+AV3BEN2DcVo2jS6vYUQZfVV0PL735HNw9OQG6jyrUq0W03WX0DuBjK4E/XQs87gPg65pbPjHaEtmFR9UrGjD08J/IQSY/RINfxdp31KK9EBUsmDZ9Q71TaA7hkW9GmvcG0nSXaMCAtJgu0BxhgrBxccAGV0oD7DV1jIj2MdJGy9j32y84RRRwP5S7swk1/A/qsy4+UEBrZe7dLjByEis4NMehQAxSwq5EYda65wbhUu+yfbG9RFMsCP+ubNC1x0AwXkRZWtrQl2iLUZ9x6aHV8w1ScBjsWhNaz+eTsFL/72EZxBsKoj1EWzApm7LqB++j9HaixYAESmntZO2Sp5tahDjIxmlpvt/BbP1gkpGwKKtBU/HuUUvRD9JX3Qsmmp4zDnpPz2Rdm/hG7R9svfVhxeZPE5ZY8yRbnOkk5cqBpqgSmBbjB+ei/eHm8FUoMPcIosNEDvQLe3VXgoRGjmu6dpglWcMUOz8vNMy44leWWNM0W6x5P2kfLGAQ++wkFBiufEYCaAvRkQJaRankh6EaX3i6kuWLJ9kS8e97cL9XaPqNLKQwxCekYDYPzk9BW1SBRvwwCuQT/HsKHU6k3BNIB3lwXjkPLkhgIQWRLLRwKBtecvGihsu4jB8RjP0/eLYflt5DiyUAAAAASUVORK5CYII=;" vertex="1" parent="1">
          <mxGeometry x="601.64" y="325.62" width="56" height="55.26" as="geometry" />
        </mxCell>
        <mxCell id="jrJqLl4sHzsxgfpdWQpS-5" value="" style="shape=image;verticalLabelPosition=bottom;labelBackgroundColor=default;verticalAlign=top;aspect=fixed;imageAspect=0;image=data:image/png,iVBORw0KGgoAAAANSUhEUgAAAOQAAADkCAYAAAH/ULgbAAAAAXNSR0IArs4c6QAAAARnQU1BAACxjwv8YQUAAAAJcEhZcwAAFxEAABcRAcom8z8AAC+CSURBVHhe7Z0LnBxVne9HBQFdRQRdUSQKgcx0ndNJjLxEjaKsfBYF0Zv1sQoXlZFkuqq6JyGJyhpRdr0iy9VF94roipvdVeC6Phe5KEYE9CooKE+jEAhJpuvR0zN5B5LM/n/V/046k9OP6q6qru4538/n95mkq86j6tQ553/eA5pUMV6Q92xfNneqlJdTk6PZKdcWT68vnH4EX46OckFOeXZrYift45unvlDlcTPtvGxee4FPjkpX5eFmeqW+bQzxbQOeJR5U3QfxLa1BDm5qx4PxQvYAN626C6h1tHXp3FAxXr/YOKXWvZ+Xu/lSfWod4FXyz6EYs+e8qtYf/rk+jW5eNTDw7NrrVZVsuZ1v2ccWekPV67safVjIe/s8GjHexj8H0Afz1eo1lXwS37qP2uv808E0uqn2Wj35lriYbw+ovcY/HUy9m1xLlupda0TtK3Yt4+3884HU83iCPijV781w8nJ51R0Vlw/xzwdSvWG65yhhVL83w7XEXfv9FC7/fCD7bzjY89prji2uL1riL5tp4oDCosNA21OdQFEYVG9SZQH8dqBHYVQnUFB7Y2nUeCX/fABbKHJ4dc1U61fLgUL8c9vs96tBoKA2UIgy/aN8KTT7/WkSKKgNtCrXlo/w5ZbZ776FQEFtgJ2rxUBB7RfdkSzhsZetQ44eV3rWotgbjabfcQqZ2c+smDdVpgIchtvOy8gEscT1fDk6VPlMpZItbmYn7UGWuNLjZmLn4VB5hNfo2+LLfMtAcUSeh+aF6t51S2a9jG9rznTHaODypbpsMjOZ6e74UmOmmxz8c8vUum3Jfaib61DrR8MGVu2NY6b4GP+8j3rVF18+gGbXAxrdVHtNJb5tH+jgqF4jQ/rH/PN+XDuzqHoDNeWe4Z8D6n2J08W376PRtYEdKDVacOhbxnf556bUuuOf9lPK708f/mkf1d9REPBPLVF1p/KzpQCVDhvQ0N32mldKiXwV/xxQ6xCljaqxo1KtO/ZqPw411RvdUHutHbE3B9LshtrrYcVeHEgrNzmWuBjZRNXIqVUrfgW0fGMLUGP3p0392bV8f7O86c0t0JIftYFVpWrMNqO2/4h/qk9k7QwWe9sYZ0nmL1SO2xF72Tqo9VUetaJ2kkOj0WhaYKIgv95JgbyNDFvfzp7G3qWDckEWVZGNStzQOo+DSw6qZ78+PTJJiaMQH5OFrKcKeLpgx627aNbh7KxlfEvkWq2JYS6ws2iYWCmPUgVUFT6picXyKL49Msp5+UdVeFXBcuNbO4MeYKcqAAhtTb4tVnxzdsNB97Xm7MP41vDsqBk3my6+pSlufvDYbdRMUXV4Bc0TS/yWb22Ka8rbpvtRFbqQ+LbWcS3jHpVnlC+bPiDlratUbpsJkwHYi7o0Mt35ltZReQLx5bqo3IQVOoHYOyXuiPF2lTuMMfMtzcH0GZUnnp2pW1+hNFW7aU+bRxtHeGtNb1itMLeBb2lMmL6+KjuXqwN1beM9fEukuJb4nio80g/5lsYoHAbiy0pULwbjBHw5cnxLfmV6eBW1OAZYLyXXrBo4hG85CHqz31e5QQrzLZFS32hocXSVIlxWeYBRHL5FCaoKlbtkFWIIWe1BMHD+n3yLkqlVCw9RuUtOIR6S6rrPqz0Juu43820NoQA7Gu5uTyEeEpA18pjaoyBFYytUWoESQVkGhH5IsMk0Fqs9qwgPS1ZI68N+EXNwnNp4yCrjNcMi9RT05+aND7KT2FGbeB08ZJWDPW0sNMMwno7pgFRq/8SzjC9S6l9L12BsHyAyHP4PrjeSYxvXUDbaSvcrw4vkIatsLmQ3qwPptiJ8yFpKtvG2TvrWI1ZrZl2U+LZxIX1e3yD9Ik6VbPEFDlKj0Wg0Gk1aKFpiFVXUW59ePi+YYwgDvirMi9m7cj7ZtmJtuTD3zewk/YyvWHAk+kx5uC208CLG8/Ju9i5duKbxkVaaYmGU1DhLUzYOn3xM1A83XRiP4eCSB6vtVJGKQ0HvQ974Kw46GaKepNWqynk5wVGIF1Xg9YQS1DVl0TXF37DzfYxbmePHC/LzlcKm9ZfWbDCoY/DZqAKuFSJM913NTlpm1aqBZ/v5+gO+tUJ3CjuLlmarBlBtUL14Nt/eEVS3TqjCqBV9AVv49mjYsaz+iDNEeeWgJb9RQHWmMryqHEsu51s7o2iKb6sCqMq1M5fwrbFQOwdeJb6tM1QeV7Vp8f6F+XFSu/xgujo2GjAFTOUxNGYZ7+XbEmFHg7i4o4Mn823hUXkIUR70+ZamUCFyS+168apQkO0hA72cH3wN39qU6X5UhXqbbwkHOVTOG2h1glC5INeq3KuEEemxS094KTuti2Nn5qncQ21NllJ5BFEd+Ea+pS7tWkTjtvw1e1GXXXXmJoROTc823qTyCJOL+Ja6dGqwU337e/ZKyWPDC45UuYP4ltYg43uvyhPXNq7jW5SgcaxyF1YT+ZNOYC+V1HuRY0uzz+dbmlOv0cuXlfimPE7lph2RTdswLLKslBMLXUvew7c0R+VBszVgUaViVeOWyLLXB/FgnalnoYx3lQco7vmyEpUbCC2RjmYx1kEVVsvzhnx76DSVB6Qi33IQ9aacIe/wLZGjCg/iy41xbfEhlWPPFg/wLQfhmNlzVG5cK7uKb4kcVXgQX26MY4qPqRw3ekiygF6jdGPJBXxL5CjDI/HlxhStzLDKMZVcDdtvKjdUSkfb5qtBFR7ElxtTL0/upNKTb1GicgNhLSrfEimqsCC+3ByVY9SdfFkJlWxKAwKCpeTm5BvwwFGI/HqfKhyIo9MclWOIL9dF5SZpcVSaU7te+wBZwuFblFAL5T6luwTFUWmOa4kdKg/QW8e31KVbfbJVcTSas2HUeKXKAwjTovm2umwZlb7KbRLiKLRGoy5IvqUh6z+ceXGj7pO4xMG3hmOL36k8gbDlAd/WEmQU3IUuEHzKKGk7EXomVHGqioNsHZUnVVGbcwff1hXqTXPjy63jmMYdKo/2q3FpGzeqOPGlcDTrxQ61qiZiHEs8MT0+fCk80z2aLjSpblo08By+PTHInl4zPS58KTyeKb4w3TOVkE/YSSKohhD4Unv4+eyfp3tYT+jtxhxYdhoLVF9/QxU2X24fyp8NV6aqhC4JLJqhf//etY3VmGJN/hw0NZuqhtumT8VWaaIgb9+ytL5VxVHtDHqD31R5nhZxNDsHu3bX67bstjiK0VGyDy7Cuy2OWvRQflIuYOuGOErx4ebFuY0GTOOWayv2h4sb38xkfDv7SQr8Tsz4j1F3dXMplUaj0Wg0Go1Go9FoepqyPfdFrjV0Uik/18B2lLXyLOMUnJkwtjT70nb2DdREAKYmurb4smuJ7VgRgp7cZgN4YYSRWGwmhwlyGFElv39YMo3XcfCadija4p2eJbZ1szdsujYvzQYfj2OJKzmamuk4lvFunAHWbIlU2oS5vWVb/hM/xszEteW1zVYm9ZJwyuHkqHyYH6+/2WjK81VHOfSbMIGnZMub+LH7By8vfx+lYVJPVWMFHwvqVwxDV2dF4d8wYlAc4i/qO5UfUQuTJzYOH/s8fhW9yWRBOqqHa1eoQ4MF4JYok1ats2e9iIPqmKnhgUNdy7A9WzyGj6DZnKWwwlmvsLw5uN6Act8jrSxebybkmnJebvMjWgPeDmPWoKC4rMcHND1+7Qh2wdSiRYnP5QqFm8u8r958xVaFiaVOinedo4/q4kaLjUOo6erQrlAuyN2KyLYk1GHUbvwOe9UzlGyxopO2LhbXbBw9+Rj2rruMLxma1W4zAvWGmxt6A3vVs2AfonY30Ua9X7SML7JX3cGz5HDddTENhK+42GBha6/im6e+sN2Pmoy3P7E3yYKuqnbmRbqmuIG9iBy/MPcV1NQZcW3jNorbGIW307XkLiq2nwn+2sKlF/YHL2dcRtfmsLPIcUzjg0F1oXj+RiIjse7a4ligF7M0bLsQxejG4QWRtafGc8Zcsmi9To0rCNYxPspywXg3ex8J7Sxnog9tHTuPFwwDhf3ato5mt7HzjijamfManSEUlYKi3858koPtCCoJHlGF0UiOZXydncfH7soigBAST7PTtqG6+NtRN9BbEXIpGSN/5mi0jWvKX6r8r6dKF584g51HD9WLv1AFXE/UJOlo9nfRGjxbtf9S0kI1MmYZ/8jRagvHkhtVftcTimV2Gi3Y1GZXiGINEelkAjgZDI+q/O2mKIfu4ei1RZj3F7QGTLGCnUYHWZvfUQVYT1Rp385OQ0NuU7d4pioUexzN0FSMxNbti7DLp1sCxaQqMJUw0oBdKthpKFzT+ITKz2ZCfVaxEsU4fQjfJyPjK6Fly9X0sm9pJmrefJajG5owVQXGOOldNt3RrmU2jAweHbIrai87DQ2+eIV/dYXE25iTPdM75Jhireo5VEKvD5WEn2OnneNZmfdjrE8VmFriD+w0FH4hc2qYhJwoJLTRcoRQjr5e9Sz1RKXL/2ennePmjI+rAqmv9hKymMu8r9UB3+C+EfFadtozOLZEr5LymVRybfEQO+2c+pucqQVjhZ2GYtvy2ce12vmMJgGF83fstGdAY1/1PPUV4VFgYYvW3Ssab7rYCDI66m4ZNl3Ilc5IvNsyRI1vi22qZ6mvCBPyyZXyqDDGDl5wyRoU7DwUk/bQaWG7ADHiEPde5FERfqZBxIfzhe0kp0q9taOCFfi2cbnSzxZU6fw+cEuptKjV+v9ARZyQ5OEN6oDUChq+eXk+Ow+NsyRzDh5e5ffMUsQJiQlDYXdNxkjFVIMzuFsBH0QUE7l6VxEnJPBM8TV1YPWFupWdt83ey+a8IA2d591RDAkJJkfDT7JCYrZ1+IECqgOvDtP53PuKKSHXLFx4SMjuukAwQjzLuIK9iYQnLzFOJL8fQDddN8Yrk1FMCQm8kTkvb7eow0ufuin+Cbo4MZ2s36HiiLjAy4l3dksIHwMBJVv+BtMfgw86lGJMSFBabLyyMtqgCry5qGHc1f1Qu4ljZkYwsqF6Lwcr5oQEU8MLDsXqYXUEWtPm0d7r+I4CsgCfxXtnNlECCVmFio1N6ki0LnwQbk72RO9MVLiWuFX1Lg5UggkJnLxxZqPdVMMIUycxHZ+97ltQvaie/0AlnJBVPEvcrY5Qe0K3Fs8q66uEpff0kOp5D1aXErIKFbeb1RHrXOj3Rf1CTY6Nnimu2WRmMg8uyjyXg04t3sj8l1Nx+lS4fusuJ2SVyVH569Ad7hEJpj6mS1Sluqeeat11KpX/rSslCVmlGOwfMFO72TpRyhKyFsopn58Jm0JEoxQnZC2uKRb6ltyuh6zUojq1O8vtOqWYlyeQRXcHjJlu1a1p0ebRuVMbrczx/Gr6A8yYKxWyf+9asoTDcTC9A/29nR6AnEZhUKJckD/gR9doNBqNRqPRaDQajUaj0Wg0Go1Go9FoNBqNRnMAj3xozguwi7JjGidOP3IQwnGEuIajCdmJppuswxmRtvEe1xLf92zxOOb27Fk5f9/0D+yqjN9qhfml+B3CVIpnls+rHgbjerb8uWMbl7W7f54mBK6deV/Jzv4K+xhgjUnUc3WQ2Ejkyj4J4kksyl1rzj6Mg9d0QtHKvN+1hYuc097WJu0LCYvcjY0oHEt8hqOkaZW9lAvoJa7GS0w68eoJSw+C03cssc7JGXM5qhoVm8x5L/Ft8btOF87GLZQO43m5ecw03sxR14CbFg08h774u9s9+KRbwsx4nMY3sViewI8ycylR3RN2E6a0aXNQj4p0HlgWNzhHkerB3TAoVC+nFxVsbGiKD/Ej9j+uZfxDRMf2pU68meFv+VH7F8qBT/ZTLqynrdTOfarXTm9tBXSJVdtkqgfvR8H6HhsRF/Mr6H02LR5cgPMrVA8btardb9XeH+QMlAD4N4TfUZdhc4nwO1CF12aEn+LTaVuG6sO3x9WsQKIFnQboqrPEj9FXWsoZZ64vZF7MwSvB1mZYoueYOJ5Q/F9svY2EDXtMRasKOjUs8W0OvvdAIraz+WAjoe2GIou+8p94uexZHFQklM3sfN82VmNzfHwkqvDbVcUuEL/goHoHx8ycE2VxilxdzssHPEsu4CBiZdxacLxriTUoiqMqgpGYjin+nYNIPxOmcWJUxSk2jMBQFQ5YY+8Tp5Q3ro2qZMGIDVUBV7PX6WV94bgjouipwYtD8XlTis7rnyiIa4IPSxHfMEKxXcyJD7C36YSMj12qyLcq7F9ORdkWbCHKXqaKNasGDiHj5dFOdyDBh+oXTnoFe5suHEveo4p0qwqKL0tcyd6lGqqr39/pPkF4XvYuPbi5zPs6+Uqxge+YPedV7F1PcO/wwKETeblV9TytyrHE79i77oNjJDr5Oska3cxe9SRUFdzT7n5z+PiLlriAveou1D56rB0DAGb9eF7ex970NK4t/j3csYz7hUzA3nQP+prOnhwNb5ojEUn3szd9AdqI4yFOva0VNbHuZm+6Q7s9IFQ3bGAv+gocsx/mDOWq0HmyNT94LHuTLBhXbKdu2DKa3cFe9CVU1Tyoeu5mouJ5nL1IFpxhoYpQI2Gv8qlFA7E18v3C4OnUhPmqb4nHKLwtpB08/3UH/b6VivP1nm3c6OUzZ60vnH4EO4scCqflMzCrwgBAqSAle5EMnik/rYpMIwX7kufnnsleREapID5KRtP6ym6SzYencB39nuh8921BCWxcce/wgkPZu0jAlM6n2zj2ieJWYi+SoZ3TBKhCv5WdRwIlwnW7I9gKFO5hOdLf29jrSHBNIx82bpjIhX3P2Yt4odx4fthzqDAXlJ13DH21/3MHfe3Ncl47CiZQRdipTR/buCqcRiLb4x52Hi9kcYaKHAZWMTbJzjuCPqBH4p59jlxERtzOqVWdn1pQtme9aCu6HhXh1BNO4puaGngWexEPWNQSdoiKXswWdt423mVzXoDdhFX+xyWM4pSsbFvnRNdSNMWdKv/rCR+SY2ZMdh4PVM9dpQq8ntDb4SzJzGPnbYFE7Nb0yeCjtYxTOCptgZwd/jA4Ee95YeWC3KMOWK1yXm5np21R6cftTiJWtYsSkz7G2RyltkDnuMrvegqK1+EFz2Pn0RPm6PXAILLkMDtti4lCFm1Bpf9JqtMhpw22nBPm3QWGnCn+lp1HCzWoLw3TMYzGPzttC8c0Vqv87Zbow/wzR60twlrZVI11FF5dKHf9XBVgPTmmeICdhuaJ/OCxwUCzwt9uqVPrm3LYF1T+1hMGI9hptIRZt4iH7mReCnexKf3upjppD5dGjVeGaYrAwJscGTyanUfD1KqFh4SxvHAvOw0N1kyg31Hlb7eFQQLfzr6LoxqaMJOgEZZjG22HpQRWW5iGOLrw2GloyMK7ReVnWuTaYpKjGhpy+4TKz7oy5b+w02jwTGNZqH5DS7Q9aNzudEp8aOgzJSPhV64lv9KOKN63km5pJKpibp1aNXAIRzcU5P5/hzN6Im5P0kN+N0wE0HHATkOBBbDtDFaPF+RuHJbG3qSWUt44M0yGoBy8h51GA30ZD6gCUimw7nLGe9hpKHzT+GyonE/ybfE4O089vjn7uDD1JO5lp9FACYndoZSBTRcC37S4vW4t15a/UflZT6V8di877QnWrZp1eBjrH6M87DQawhSraP9tHF5wDDsNBdUhLZwCXhGKYEr4N7LTniGMDYC+3nUXzTqcnXZOmHoLCYk9c9hpKKhu3abyU6VJKsLZWU+xd+V85fOohHc5tjT7UnbaOWED3zjaXo4MM5mLDIGn2VlP0VMJ2W6O9Cy5SeWnSlSs7mJnPUWYojWY52QPnsFOOydMQga9/JfKOew0FL4lHlX5qdJE1BZdAlCEnxU2IX176DR23jlhusyCxTyWfAs7DQXVkTe3alih3h7vMWNnYrE8KkxXZ+QJGcZqxb2uJQvsNBRe3nhHmH1Yx/NiKzvtCTaZmUyYocDIEzJMOzKQJW9kp6FYs3DhIdiMQemnQvhoKDF/xs5TT8kSl4bp8Ig8IV3b+IMqoPoSbU/xoAedVPupVlBaWGIDtl1hL1ILVR13qZ6hnmJISHlTmOK1k9EPMngubmeJGmYkUElwP2kYfbbYnzxtooTcrop7PUWekE7OWBKm7kIEPHtOW5YrQBNG5W8rQjxhcKVRqvg2UuQJiSMYwkbE7WAszbOMJWE7z/tRkScktkkJm0sQCXbeFj7Vsyp/Z5IiT0hQzsvdqsDqKeif7WBBynYrc/yOZe0NMveLYklIx5b/pQqskRyrs/3XHCtzUTsDzf2iWBISvTXoFlMFWE847abTtYdU1342zHyhflIsCQnCNNarIpP7O+y8bagde+1MzJmxJSQ19B9XBdhIWKKOkXH2om1827gwzOh6Pyi2hKT25IVh2pMQ9uChxnAkW7HgcLOJgtw2U5omsSUkCLMYpSpEyM0PvYG96BjflnnMxA7T29SLijUhqbH+I1WgzYS9ZNiLyMAoS8mWezrpCUqzYk3IDSOnHN1uXeXa7S/saQT6Mcmy/QJmgaOfF6UGXgIMpOndZEkLVVG7JUesCQnIEg039Z2Fh3JM4xr2JjYwEu+NikG/MPfU4oi4wMuJd3ZFpjyfmm1L6AO7jrQ7bDMq9oTcEHJlUa2CZgQ9IHs1o/BzmVO7OkNAhWOFb4pUhYeh4vBs9mrGMTnaWndnIgmJNe6dbNIAA2VDbuit7N2M4sFFmediFrnqvdQqkYQErm2s7qQJgJ4iJy8vYu9mFJ4lvql6J7VKLCEBAlNFolVh/xzXlqvZuxmDU8jMbtYmTzQhi4tFtl3Dp6pgJXBeOLA22dsZQTA9RfE+qko0IQFmA0TRy4KFqmOW8V72tu/B86reQ1WJJyQo5aWvikxYYeIVNaSfenLx8Uex132JlxevbVYtdSUhsUtVlFuNof4Yt+Xt2IiCg+grqPm2RvXctepKQgJnWeZlzcr9sEKbk3L7fV5ODHIwPc/4kvmzWlmG0bWEBL6dPa2VNlJYBTk0L3eX8+Iz3sicZDanjQGs/2i1r7qrCQnQv9nOcFerqo52uLa4s2wb71pfmJvOc6amUbbE0u0hPvKuJyTw8tmz2tnAPqwwyIwHxrbYgeVs4UAZ8ZtyXt7m2MY1nmV8EduHYWcSuv+2lmTJHznYcgxuO5Utb3Qt8eCeavxCKBUJCZycMbfdfXOiUKV9WpHqeiPVuu1ICr9bVWoSEowPn3BkO5vZa6UsIatQUfeEXgYQTqlMSDBui092a1vrXlRqExK4+cFjPVvMmJlwnSjVCVmFLMPl/TppKioFCWkOns6vLN1gXA47PEXR6d5vwnjt+IoFx/OrSj/BZClTfAu76+sid7/wgffs0J6Puap5uSXOnqFekWvJMX4tvcv4kqFZJVt8rWTLbehUmGlFL1ay4fAafh39AU4Yxx6wvi1+Sgm6ByMHMJTCLvPrBWHuL+rGMXtuT50C3zbYgd8ZMd5GxtJKas58zbXE9+jfv+hp2eLHrik+xI+o0Wg0Go1Go9FoNBqNRqPRaDQajUaj0Wg0Go1Go9FoNBqNRqPRaDQajUaj0Wg0Go1Go9FoNCqmFg08Z8I0TnRs422eaXzQycvl43l5tWeJb7qVLSp/Tv9+kDTm2sZT9NskNt3ZQsJflbDhHw7jIjebXEtscG3xlGvJe+j/d9D/f+BZxtdLlrzCsYwlviUuCI4F6pH9UTWatsEOya4pFlImuoQy1rWUIe7zbbkTGz0gw2ATC+ygjO1nsJlFJ6fZtSPsY4TD1pCJsc044oLNNfCbj5PtKxn61vG8WOWYmf/hL81k+NE0mvSyyTaGxi3xAR8bM+dl0bfFMzjGA5tVBTWVIjP0mrBvMDIrtvxBDUy1+CT9fr+XF1eWRo3XbRw++Rh+HRpNMtxE5mXREll8hPgY8ZFi93ScgjlTt0HEc1PmDGp7ZNZyQbpUs95KpvDFY5dmX8qvTqPpHN+c/ULPksNkdv6UPrQpHJPA5pzy49TaL5jDMIVxgs9EQW6kTPrVcSv7en61Gk1zggxoi49Sif9rmGfBaT99YnJ2W6hJ0U4ONlXOi6exXyAOduNXr9FUoBpwAdV+/0p/9+BjQceK6oPSil4o9HDIRMnOPuWYxrL1hcyLOVk0M4lNtvEu1IL4GPBRqD4WrWQFExcFIv3dRWnztcesTO9swa8JT3Ekc17Jlg9V24Gqj0IrPUJhiR7q8YK43v/oSXqMtB9w7Mw83xK3b6eSFz2hqoTXSr84c24p5Y0r1lw063BOXk0vsGbhwCGuJT9OGXA7BrtVCazVm8LwCiYvTOTl79yCWMhJrkkjm5YMzXIscQdO0oJJ6ioStB+E3srgcF8W2l74UPG39vd+HxdFD3i5IHegM4g/AU0aGMtlzqKEWbtree+dUVjNXMhMMKmDwfUV8/Yd1U41fYnue4J0PxUwP6OMd5tvyX+rHNdu/JNnG9e6pvicYwrTM+WnXPwfvwdHs4vryf3/88gNub/XtcSj5EeR/j6NWUR7VszfN1UOPctBhq6JWy8IhS6GUvDeHFuuHluafT5/Fpqk8UzjHSU7W0Ji9EJtiAyHjAAzmj78za4tHvcseaNfELmSabyuuFiekPQH9eCqzHNxJHKZ2tqlUeM9FJ8vUkb+LWV8D1YGCgZkWBQaqmdKk2AloK/At8Xt6wu6EygxqAZ4O5Xmqc2IJaptEDfM96SPY7tviZ9hsoE3Il67vnDcEfwYPcOGkcGTSzm5iGpmjNWOIaMG7biU9lSjlkf8PMu4Y0KPa8ZH0GOal08GL3taInRTVZOJMt1uKqV/7NvGhc6SzMs42n3J1KqBZ7s5cS7V8tdRJg0KR7TpYPaq3lE3BDOcC+3VfXf+bTdxLxk8lto9d+24jNpVKUjwakJTSfwMtdG+S3H7a47qjMY3Zx9HzYhPlfNyw64U1aCo0dFcKFpiKUdV0y5OTlwZzCftckZEgqJmLuXFw1QLDK81Zx/GUdTUwbGyr/fz4hZkzG4PP6FpgziUbOGM2UOncRQ1rYKXRu0vDye1q15w3EICBr2elAmpVv4l/f+NHDVNG5QWG6+kzHDD5tHsM93MnLCwnl4+b8qxjRthdnP0NI1wTfHlyooA9UuNU6iJEXY5n32UTJwLOEqaCHFM48RyQXwPhS0KvW50zE2OoraUm8dzQ2/gaGmm41pDJ7m22AgTVfUS4xS69oPJBJa4auPwgudxlDQx4+SMd00U5Lqgf0CRLnEKBX7Q6WMZX+LoaKoUc5lLtizNPoNMoXp5cQgfAK8uGHPMzDkcFU0XwCwrKgzXID2SXv6GMF1LPozOQ47OzAYzSlBCql5WHNo3TmWLB4ojcyRHQ5MCMDGC0mc1aq4kF4bDdCYTdrtnybdwVGYee83ZhxVNcQeWQ6leUtRCRgx62vLy/jErKzgamhSyt3D6ERg/5PRSpmfUQs2MjOlYcglHY+bgF056BdWMf9qaQI9btcubMqRXtMTZHAVNDzCxUh4VFNoJtjEr1pr4e45C/1POZV9ND74+iSENmD3YUNgxxcc4+J5manjBoeXcya/2cpmz0AvsmfJ83zbe5eeFSebW++mZz6v8X751k5nJYF/YfujeL9qDZ0wUsmNJfDPI+JXOHtH/nT3o8qYH3bB5afztA5Sqrmn83lnWO9PYfMpEjpkZoY/vBnpPD6MnEL3O6AXGXwjvDtP1MOAOoSMM5hb+Vv+P65UdzCtu8Le60zn5O06Z90eeZVyB6W+UyXumV9mxjasrZmy83w8yZTBeaYovcND9BzYwci35J3wcqpcQldDmwMTuopkZ5aBTySbLOIUyyWcw1FPdjQ2ZJ6k2E4QMjNX4yKjUhNhO/795PG+8I80zkZycMZcyTDHu7wiqDMeIz3HQ/QMm9zqW+BUWD6sePCrhgx7Piw0lazB1nTYbrczx5YK4kj58B+8hyASKZ+i2YObvotphcjS7q2SL72FpGD9CasBYMbXzfhj3QgNYHvimHEsu56D7A2rXrEYixzUrA/6iNEOmT9PM/g2YMpYX30DvXTenjHUixB21t2/Je8by4lx+tFRATaBPx21VsMW127Mz53GwvQ2ZF5ejNohrKlxg76+Yh9n8N08tXHgIB9tVKE75iYLcyqtClPHuRSFzIgPQv29EYcOP21Ww3A3fV5ztSjQpsHvDxLLZJ3KwvUnJzJxDZs92JKTqQaMQah6qGa/nILvGk4vlURSfG2FGIQGnx7OfhEImsHgww8Ucms+voGtQM+ADkwX5DI57UMU3CnHP6+1TqwZSUeiHZsPI4NGeJe/Fg6geMArho3BM8W0MB3CwiRN0VtnypsrsEnU8+1XImCiA6LkfRGcLv5KuULLlImTI2Cwx8rdSCBkf5yB7C0qsy3lAXvmAnarSZpRrulliFS1ZQI9uknNw0yikcTBMYMkfOUsyf8GvJ3Ecy1iOTBNXpkSvNP2dwPGDHGRv4I4MnkzVux9XTyL8JXNpPWWGrhx35hQys8kU/yMKBVX8ZqrQNPFt8TQOd+VXlTieKb4VV9sdfqIN7Zrimxxcb+DZ4nqcFah6qE6FxnvQJjWHzufgEgUzZChh9s408zSMUFtSgfyvU4sWPYdfW2JgdpJji7WbR+NpKgW1pCW29cxEdGxGRREvxlU7Boltius4uETxbeNyzABKcvC+V7V9GRXIlrhjasWCI/n1JQaFf95kIbs3rnTC3rlU6XyLg0s3jiWuhB2vepBOhfaaS5ndN+VxHFxi+KbxiTg7qPpRvNbwnnX23Bfxa0wMCvffKhlHHbdOBAvNMUXZL2RO5eDSyfjwCUdSVf5wHHNVYb8HGdISV3FwiYH5pUgEfXhreFUmRBi3TU0NPItfZyK4uaE3UOWwOa4hN4x9U3s53YsWfEucTVX57jh6HeEnvYCt3qgY5OASwckbZ5Lps4172BIXxjRRM8NU37tyfmLCruWY4gdrpxPhw536xGumqF2X+ERtKrx/zBMZIhcqB88y7sWp2xxc+sC5EpvpBcTR7YyPA2YITrfi4GLn3uEFh5Jp8pO4ErVWmP6HQofNvF3U/rqlZMlhSvRTJkcGj54aSLaGAVhE/uCizHM71S3nzD5satWsw6duGki0k8fNGR9GDRlHW5IrnV1FS2Q5uHSBdXdkrv4yjh0AquNcYzlhcXCJULKM9yLsuPd5QQ04UZDrMQ2Mg9ZEwKQt55RsMRmHxYZMHmR001jMwaUL+piGyFx9Mo7aBKUcmR8TrpnsmYCYgRPnanUsISK/i0VbnMFBaiJk3UWzXuRYxs/j6IyDFYj0o+/ynzm4dFG2jTe5tpiIoxHNmfzPE3l5AgcXOxPLgsXUj8VlrqLGJ7P0PyioxE3RmQS9468G71qRBp2K/f05B5UuqPb6G2r7xNITWSnhxAObzHkv4eBiB203CjuW8VS0Ex1TJt7zOBOh7+aauIY/8F1SJfTQWJdmjDXEscRK9M6pIt6psKqdXuz9SY5nudR+9Mgsibr9USmwxB7sh8NBaWLEscWKuL7Laobc9LHkKoqWwUZScT548jWkfAuFPRm1CY7hEwzfFC3xlxyUJkYoHa/YE1MNGQx92OKpUhr3900gQ/5hcuSUozm42PHtodOo9HOjNllR41KpvVfXkMkQZxuy8m0IF98KB5ceijnj8qmPxZMhOVMUsTEUBxc7wTCOLe/etTz6Tp1grNEWP51alY4dDvqVtX87+4XU9PhJpUBXp0UnSnWGxALRuDp14CfGAkuWfD8HlwhuzviHuAaWMYuFMuUNHJQmBsatzPGUIR+Po2MOSnWG9DDsYcUz7AHtXhks6fk8B5cIT47MfzmF6cf1TJU9RuVDadmfpt9wCtlz0M6Lo0CFUp0h45wYAPHE8oeSPqXIs4zlcbVBquLtMe90R+RrOFhNBPiW+BJPvjjonUehVGdIQJG7E6aYKvKdCjMj8AKcfLKr0TGfkwqCH8SdKfHRYJUMnrGcl7f6dvZCLLblaGhCgrFB15Yb49xQOf0Z0jL+ESu149rTBLUvZY67ObjE2GTOfgmF+3gSu2VXhdOc0RmBA4n4fWLC+Vb6u0WrJe0kHfReo1T6M6RpvNm1xZ44JvNC8Ldky71uTl7CQSYGFkV7lvxTr254rBW9Up8hsTaMSvH7KgOm6ofoVMgQriUf6cauAePDC450TPFrDFuo4qY1s5T6DAl8W1hxbXBVVXCylW10ZV8dQObrl7CAVxU3rZmjnsiQxcXyBIrkH+PqbYXQjY2hCKopCxxs4pTswTN8SzhxPqdWutUTGRJ4pvx0TWdELEJ7kjLlTt/KvpuD7QqYKwkzultbfGh1Tz2TIbF7NUX4z3H3SmIGD2X6ndjQiIPuGmRCX42hkbg6tLTSp57JkIDMuQtgzsVZS0KTlAHG83KbN2K8iYPuGtj3xrXl5b4t9yRx/LZWd9VTGRKLbz1LXJ9E5wfalPRydjt2NjV70hRHBs8oF+RdOIwmrql3Wt1VT2VIsHn05GNcS/wprtn2tUKm3LaMXpAlPsPBpwY3L86dKMg7kYCwGuKaW6mVrHouQ4JyXr6GzLhdSbWtKrveiV9sHD72eRyFVFHOnfxq35L/i8zsP2InBGRQrGSJa76lVnzqyQwJsB0GRT62sxamCyZiOS+2Uu381xyF1IJtSby88Q5K2BtKtngIbeI9K+YHEyBQiKENjsyqM2z61LMZEnimsaxaG6geLg7BVHZM4/vrC8cdwdHoGXDgrW9mMuWCuKBkyStc01hNBdsvqVB7AjsZ4EOgAqdMz4k5mzvJCpmRwrOjoEfmwMIGzKKKY02uSj2dIYFr84E1CbahUOOQ9lDGTOeGtppIwUIAL589a7wgrqMCazu+N0zUp8yr/D46Uc9nSEAl/SdQiuGcR9VDxqVK7Sw3juUyZ3FUNDOAdRctPNyzjU+R+b8z6t7uvsiQgGrIEdRc3ehtDNpmlDGL1lBvHLipiQyqMf8Oa05RY6q+jbDqmwwJSnlxLpVau7o15SwwZWy5aSw3eC5HSTMDINP1jRMFubkcwQnYfZUhQXHxSZiI/uTWGJdrNRPCphe707XFJ/UucDMDxzYupDTf3WkHY99lSMBHvv0w7i0ymgmJwwfr3O3l57yWo6fpQ1DwUgH8a6S36ltoVX2ZIau41tCHyYTdm9QEgkbCpPiKKW38y6Yl82dxFDV9hGvJ73a60LyvMyTYaGWO9yx5XxJT7VoRBuUxSRw9wq5trC4WZPq2jNeEZn3h9CM8S/xWZ8gWwZgh1VC707bGEEMn6KWjRPiDmzc+8siH5ryAo6zpIchctTDpv9OVSDMmQ4J1q2Yd7lrGzWhbpnHaGIZssJ9qyZZ7KFHuLI0a7xm7NIXHkmkOwLEyF2E8MoplgTMqQ1bZhOljefnHuPZ7jUrIoBjj3IFMmpfryCT6j7It3jm+4oQj+VE0XcQja4YKzx8FNaMi/drRjMyQVcbs7GkTBbmuclak+gWlSUh0zKlEoqE3r1Iqi/soAa938/IjZJafyI+miZFSYY6kwvEnyIhRzw6b0RmyypgtF5UL2fG0dPy0I2RU9OSiwwiJis2lKWF3upZ4lD6em31bfB7tHJxKTSbW6ycKmdkbhxcc04uT5JMEZ276lji7ZGU+QwXiI9U2f1xNHp0ha0CNSS/68W6PX8alag2LmhUfFgog9ArieSH8H/vfHqy5VCPvvy9KodmAuKjD7Z6q7wXvZCLIJOp3GrV0hlSw7qNzXlUqwCSZl9iyGy0tSGfIBqy7aNbhjilWlPJyRy+bs1q9I50hW2RsyZAxnpf/hV7Pyrih+oVqaXUinSHbgBr6Z1OteR/aGUm2L7T6XzpDdoifk2/1LHEHOiaguHrftGaGdIaMkPVLMrNLefHPZNqWn16hdxzXCi9kSCrUi55lnMKflSYqnJxx5rgt/3NyNLtdb26s1YrQDHIs8fD6QubF/Blp4sIxjdeROXINvfgSMid6bnUm1aoKs36w+KFkz/0ofzKaJJlaNfBsx8yc45riyyVbrkXmRC9ude1k3GeYaKVHfrCYfe6Ua2c+yZ+HJi08uVge5ZvGX7mWuGqyIG+jv1515gg6jpBZsRsBJp/rTNvbQhrirBrfyv7WHc2ezJ+AplcYW5p9vpsfPJYy4ludnMhR7XqdZxl3kCn8kGuLpzxLbMUOaEjkqZXzp3DyNDIySl/UvjCTtbqjysqduVN7KG1gDY3b8pGJUWPxmotmHc7Jq5kprDVnHzZBNa9WF1XIvHjsA9nnc5JoNBqNRqPRaDQajUaj0Wg0Go1Go9FoNBqNRqPRaDQajUajiYOBgf8G1pSLSBvd4OoAAAAASUVORK5CYII=;" vertex="1" parent="1">
          <mxGeometry x="411" y="68" width="58" height="58" as="geometry" />
        </mxCell>
        <mxCell id="jrJqLl4sHzsxgfpdWQpS-6" value="" style="endArrow=none;html=1;rounded=0;exitX=0.5;exitY=0;exitDx=0;exitDy=0;" edge="1" parent="1">
          <mxGeometry width="50" height="50" relative="1" as="geometry">
            <mxPoint x="252.3499999999999" y="325.62" as="sourcePoint" />
            <mxPoint x="410" y="120" as="targetPoint" />
          </mxGeometry>
        </mxCell>
        <mxCell id="jrJqLl4sHzsxgfpdWQpS-7" value="" style="endArrow=none;html=1;rounded=0;exitX=0.5;exitY=0;exitDx=0;exitDy=0;" edge="1" parent="1" source="jrJqLl4sHzsxgfpdWQpS-4">
          <mxGeometry width="50" height="50" relative="1" as="geometry">
            <mxPoint x="600.0160000000001" y="325.98554" as="sourcePoint" />
            <mxPoint x="469" y="120" as="targetPoint" />
            <Array as="points" />
          </mxGeometry>
        </mxCell>
        <mxCell id="jrJqLl4sHzsxgfpdWQpS-8" value="" style="endArrow=none;html=1;rounded=0;entryX=0.5;entryY=1;entryDx=0;entryDy=0;exitX=0.5;exitY=0;exitDx=0;exitDy=0;" edge="1" parent="1">
          <mxGeometry width="50" height="50" relative="1" as="geometry">
            <mxPoint x="440" y="283" as="sourcePoint" />
            <mxPoint x="440" y="123" as="targetPoint" />
          </mxGeometry>
        </mxCell>
        <mxCell id="jrJqLl4sHzsxgfpdWQpS-10" value="" style="endArrow=none;html=1;rounded=0;entryX=0;entryY=0.75;entryDx=0;entryDy=0;exitX=1;exitY=0.5;exitDx=0;exitDy=0;" edge="1" parent="1" source="jrJqLl4sHzsxgfpdWQpS-3" target="jrJqLl4sHzsxgfpdWQpS-4">
          <mxGeometry width="50" height="50" relative="1" as="geometry">
            <mxPoint x="400" y="260" as="sourcePoint" />
            <mxPoint x="450" y="210" as="targetPoint" />
          </mxGeometry>
        </mxCell>
        <mxCell id="jrJqLl4sHzsxgfpdWQpS-11" value="" style="endArrow=none;html=1;rounded=0;entryX=0;entryY=0.5;entryDx=0;entryDy=0;exitX=1;exitY=0.75;exitDx=0;exitDy=0;" edge="1" parent="1" target="jrJqLl4sHzsxgfpdWQpS-3">
          <mxGeometry width="50" height="50" relative="1" as="geometry">
            <mxPoint x="280.3499999999999" y="367.06500000000005" as="sourcePoint" />
            <mxPoint x="450" y="210" as="targetPoint" />
          </mxGeometry>
        </mxCell>
        <mxCell id="jrJqLl4sHzsxgfpdWQpS-12" value="&lt;span style=&quot;font-size: 14px;&quot;&gt;MOSIP ID Authentication&lt;/span&gt;" style="text;html=1;strokeColor=none;fillColor=none;align=center;verticalAlign=middle;whiteSpace=wrap;rounded=0;fontSize=14;fontStyle=1" vertex="1" parent="1">
          <mxGeometry x="599.64" y="388.62" width="60" height="30" as="geometry" />
        </mxCell>
        <mxCell id="jrJqLl4sHzsxgfpdWQpS-13" value="&lt;span style=&quot;font-size: 14px;&quot;&gt;Applicants&lt;/span&gt;" style="text;html=1;strokeColor=none;fillColor=none;align=center;verticalAlign=middle;whiteSpace=wrap;rounded=0;fontSize=14;fontStyle=1" vertex="1" parent="1">
          <mxGeometry x="220" y="390" width="60" height="30" as="geometry" />
        </mxCell>
        <mxCell id="jrJqLl4sHzsxgfpdWQpS-14" value="&lt;b style=&quot;font-size: 14px;&quot;&gt;Self-Service Portal&lt;/b&gt;" style="text;html=1;strokeColor=none;fillColor=none;align=center;verticalAlign=middle;whiteSpace=wrap;rounded=0;fontSize=14;" vertex="1" parent="1">
          <mxGeometry x="395" y="353" width="90" height="30" as="geometry" />
        </mxCell>
        <mxCell id="jrJqLl4sHzsxgfpdWQpS-15" value="&lt;b style=&quot;font-size: 14px;&quot;&gt;e-Signet OIDC Client&lt;/b&gt;" style="text;html=1;strokeColor=none;fillColor=none;align=center;verticalAlign=middle;whiteSpace=wrap;rounded=0;fontSize=14;" vertex="1" parent="1">
          <mxGeometry x="400" y="40" width="80" height="30" as="geometry" />
        </mxCell>
        <mxCell id="jrJqLl4sHzsxgfpdWQpS-1" value="" style="shape=image;verticalLabelPosition=bottom;labelBackgroundColor=default;verticalAlign=top;aspect=fixed;imageAspect=0;image=data:image/png,iVBORw0KGgoAAAANSUhEUgAAADoAAAB0CAYAAADU6SE0AAAJ6klEQVR4nO2cXWxcxRXHf2fuXa/X38GOHbBL7HyCQ0JC3CQkURoSCBJFwgIpJFJUpWqgUqE0hD70C1ApL1Ufitq8pA+QFqkV0AJqEW3ekhBQSxqgTqBQ1JRY2MEmOJvgOOvs3jl9uHfXGyf2ru27Jlr2L1le3d2ZOf97zpyZOXNmRFWVLwHMFy3AdKFEtNhQIlps+NIQdQtVsaqiqogIYpVzQ+c49ekpzp49i+d5lJeXU19fT+1VM4hEIplyIpIpFyYKRtTzPADi8TivH3iNN9/8B93d3cTjcTzPIxaroKmpietuaGfjxo3Mnz8f1/XFSQ/tYZKVQk0Ykskk77//Pnv27OHI39/k9MAAyVQKtRbHcTDGICI4sSitra1s27aNu+++G8dxcBzHF+5KJ6qqHD16lMcff5yuri5Iegi+4EYEz9qMeaYCLxGLxdi1axc7duwYMfkQiYbmjKy1qLXYlEd8YIBf/fIp/nXkbSRlESNgBBXwUDCCOAaM4CK4KqSGEjz181/w6p//gk15hP3+Q/W61lpE4Lnnnmf/gQMYEZT8BU4khtm9ezcfnfgodGcUKlFV6Ovr59lnn8VaD2Ri/cxxHbq7u9m3b1/GmYWF0Iim+9/hw4fp6+sDJqeRRCLBO++8w5kzZ8ISDQh7wiBw7NhRPM+bFE3f9IX+vn4+++yzUEULlaiIcPp0PDMeThQaEL2QvMDQ0FCYooU/BYxGo37/zBc6YuRiDNYqruPiOuHOZUInOmdO24SGhjRJBRDBGKGyspIZM+pClStUZwSwcuUqJuqIVPwiiiKOQ2trKw0NDWGJBhRAowsWLGDNmjV5/16z3omnlqqqKjZs2EBZWTRUuUIjml6tGGPYuXMnMxsb8S04P+1aVSJuhA0bNrB67ZoJTTTyQbgaDWS7cckSvn3//cyc2YCqzVnEorgRlxWrVvHAdx8kFotd4cs0EQRwIy6dnZ2gyt69e+np6YVxNBSNRtm48Va+8+ADtLS0AIS+Jg1/9aKA+OvR4USCY8fe5Xd793Lo4GsMnhtEbdCcQFlZlLZ5c9m6dSu33XYrjU1NGXJha7Rg61FrLYigwaqm5+OPOXLkCMeP/49EIkF9fT1Llixm0eLFVFdX+1NIU7jITmhER1dig74pIqhnM44qO3qggcsZ0aK5yHWFqdOcRLNjP/4DyLYqv7T/UEeVu8j6LtOKqiJGUL3UVIOhddQTv6LRVeVj5nk5o2wtWM8jlUrR3X2C9977N5988gnJZNL3rmE6j+zPYqirq2Pe3Llc395OrLICAMdx8u7LeRFNV6aq9Pb28vTTT3Pw4EFOnx5geHgYEEQVGcM2dBxZxiuTPTAZY6ioqGDunDl845vb2bRpUz6iZ7WTh+mC70W7urr4yQ9+yAcf/Cf4zgZCOGBt6ERHyvlrXb/fC+oI27dv56GHHqK6ujoTTBsPOTUq+Munt/55hO8/8gi9PT0ZCxVJe0k/DjQZrzZemYu7+IifMArP//4PxMqi7LjvPurq/AWAOGN77bz8eW/vSXbv/jUf9/Tk8/OCQ1VJJBK89OJLHDp0iGQymQl8j4WcRD3P48D+/Rw79q4/Nl4BUAVrlf5P+9m3bx/xeDzn0jAn0c8//5y33n6bM2fOEIkULLA/IYjgRxhVOXz4MP19fZlhcCzkJDpw+jQ9PT2oKtYWZBI1OQQd+NSpT+k9eRIRxrW4nETPD53n/PmhoA9cGaabDbXKwMAAnmfHnULmtkVV3zWqYsTAeFoNc84WNDN6aBK9uB1ftNwrnbGJjuaTnquOMyCEadgS1KejnsnoZ5mhbvy9mgl7l/EG/ysZU18XZYdLwvZVWdqaKiau0azPEdfl+vZ2yiJlfPjhh8TjcYxIZvE9JQgYMcxunc2spib+e/w4p/r7J13dlIguvekmnnzyZ6jCb/fu5Y8vvEAqlfKnayEwveaaa3jiiZ9y7bWzeeWVV/jNnj0Mnjk7qdqmZLrLly+nra2NtrY2Fi9eTDRaHloIRK1l/vx5LL1xKc3NzSxbtpTa2lp/UjCJLjJhjWZN43Ecg+NGsNZDgjEsrMiMCrhlZYjrII7BjUQCrz+5XvGlSb8pES02lIgWG0pEiw0losWGEtFiQ4losaFEtNgwMaI66v8VgfxWp3kTVVWsWoTsZGMBtQHxwrL3m1Cf1iXccredk6gxfvQnnX+gWWt8xzGXbPUXCgKZKMalMvo731PakqitreWq+noc42CtxXoWUCKRCLNnt2JV8bxwt/Uvh5qaWhoaGi6JScViMZqbm6ewmxaExRtnzeLW2zcRq6lCIi7qGlIoHStXsGLVSkwQ05l61O8yzau/6atAy7VfYd0t64lUlJNCSaF4KF+7ZT3zFsz3DyRMJVJvjKGzs5PKykpefvllBgcHaW9v595776WxsTHzu0KetxX87LJt27ZxVd0MXv3bX0kmkyxbtowtW7ZkND2eDLm39kWIRCLccccdrF+/Hmst5eXlRIKo3LRBoLq6ms2bN3NX510kUykqKyszey65XnRe4U7HcVBVqqqqLjKP/PP1sraGMg7b34bMNw4sQZ6hGEOsooLYZb6fskaz/2cjX3MNasgkXPjDFBdlkuWuQ3x/Z2TMoXO8lzYttqeMHoPFd17TOPGYlqQEa/3d6IrKCtauXcvMxkb2799P94kT09bPp4WoBFuL1y1q50ePPUpjYyMLFi7gsR8/Oh3NA9NkusYYrLXU1NRQV1eH4zjMnt3qH86bJkzb+GCM3yf97Bb/sN509tHpcUZZw5AxJuiX05sjUFqPFhtKRIsNJaLFhhLRYkOJaLGhRLTYUCJabCgRLTaUiBYbSkSLDSWixYYS0WJDiWixoUS02FAimg8uzRnQy2/ZW8UEx6fTp3qNMXjjXKungBrBCxI6MieEJ7kJF5pGXdfFMQbSN2Ckzy0riBHEGBzXzTwuKysbM+UN/BfhGBNkr0x9I3XKRNNCzGxooK6mDgnuNUlrLq09i9Lc0ozrulhVrr76aiqrqrLfx8V/As0tLbiu+8UTTSczGWNYuHAhi25Y5BPxvJELIFTBGGpqath0++3+fSYCM5saufPOrwfE/FwVYwxW/c+zZs1i9erVeV34UnCiaYgI9Q0NfGvHDpq/0kJKLcZ1wBg8FMd12bnrYZZ3dGSuhDbG8L2HH+bmm2/2b6YSSAwPY0QoLy9ny5atdHR0hHbwNryruFSxKY+TJ0/yzDPP0HW0iwsXLjCnbQ5bNm+mY8VXUSO+u5Ig00iVvr4+XvzTi7zxxusMDp6jqamJe+65h3Xr1hGNRv0EKsgckoXJJQWES9SOpLwNDQ1l8gYdMRgnMEvxhfY98IijGRoaCm47j43cbm5txmGl85EmeyK4YLfIXWkoTRiKDSWixYb/A9Mb27AeG8olAAAAAElFTkSuQmCC;" vertex="1" parent="1">
          <mxGeometry x="220" y="328.61999999999995" width="30" height="60" as="geometry" />
        </mxCell>
        <mxCell id="jrJqLl4sHzsxgfpdWQpS-18" value="1. Show Login Page" style="text;html=1;strokeColor=none;fillColor=none;align=center;verticalAlign=middle;whiteSpace=wrap;rounded=0;rotation=340;fontStyle=0" vertex="1" parent="1">
          <mxGeometry x="297.65" y="338.27" width="112.05" height="30" as="geometry" />
        </mxCell>
        <mxCell id="jrJqLl4sHzsxgfpdWQpS-22" value="2. Login using e-Signet" style="text;html=1;strokeColor=none;fillColor=none;align=center;verticalAlign=middle;whiteSpace=wrap;rounded=0;rotation=340;fontStyle=0" vertex="1" parent="1">
          <mxGeometry x="285.15" y="317.03" width="124.5" height="30" as="geometry" />
        </mxCell>
        <mxCell id="jrJqLl4sHzsxgfpdWQpS-23" value="3. Redirects" style="text;html=1;strokeColor=none;fillColor=none;align=center;verticalAlign=middle;whiteSpace=wrap;rounded=0;rotation=-90;fontStyle=0" vertex="1" parent="1">
          <mxGeometry x="394" y="203.5" width="70.5" height="30" as="geometry" />
        </mxCell>
        <mxCell id="jrJqLl4sHzsxgfpdWQpS-24" value="4. Show Login Page for UIN+Challenge+Consent" style="text;html=1;strokeColor=none;fillColor=none;align=center;verticalAlign=middle;whiteSpace=wrap;rounded=0;rotation=308;fontStyle=0" vertex="1" parent="1">
          <mxGeometry x="188.88" y="204" width="267.62" height="30" as="geometry" />
        </mxCell>
        <mxCell id="jrJqLl4sHzsxgfpdWQpS-25" value="5. Provide UIN+Challenge+Consent" style="text;html=1;strokeColor=none;fillColor=none;align=center;verticalAlign=middle;whiteSpace=wrap;rounded=0;rotation=308;fontStyle=0" vertex="1" parent="1">
          <mxGeometry x="247.49" y="203.5" width="200.13" height="30" as="geometry" />
        </mxCell>
        <mxCell id="jrJqLl4sHzsxgfpdWQpS-26" value="6. Forwards UIN+Challenge+Consent" style="text;html=1;strokeColor=none;fillColor=none;align=center;verticalAlign=middle;whiteSpace=wrap;rounded=0;rotation=52;fontStyle=0" vertex="1" parent="1">
          <mxGeometry x="456.5" y="210" width="215.5" height="30" as="geometry" />
        </mxCell>
        <mxCell id="jrJqLl4sHzsxgfpdWQpS-27" value="7. On success, send Authorization Code" style="text;html=1;strokeColor=none;fillColor=none;align=center;verticalAlign=middle;whiteSpace=wrap;rounded=0;rotation=52;fontStyle=0" vertex="1" parent="1">
          <mxGeometry x="434.98999999999995" y="220" width="222.65" height="30" as="geometry" />
        </mxCell>
        <mxCell id="jrJqLl4sHzsxgfpdWQpS-28" value="8. Forwards Authorziation Code" style="text;html=1;strokeColor=none;fillColor=none;align=center;verticalAlign=middle;whiteSpace=wrap;rounded=0;rotation=-90;fontStyle=0" vertex="1" parent="1">
          <mxGeometry x="359.99" y="192.99" width="180.34" height="30" as="geometry" />
        </mxCell>
        <mxCell id="jrJqLl4sHzsxgfpdWQpS-32" value="9. Authorization Code" style="text;html=1;strokeColor=none;fillColor=none;align=center;verticalAlign=middle;whiteSpace=wrap;rounded=0;rotation=20;fontStyle=0" vertex="1" parent="1">
          <mxGeometry x="469" y="317.03" width="120" height="30" as="geometry" />
        </mxCell>
        <mxCell id="jrJqLl4sHzsxgfpdWQpS-34" value="10. ID+Access Token" style="text;html=1;strokeColor=none;fillColor=none;align=center;verticalAlign=middle;whiteSpace=wrap;rounded=0;rotation=20;fontStyle=0" vertex="1" parent="1">
          <mxGeometry x="469" y="328.25" width="117.32" height="50" as="geometry" />
        </mxCell>
      </root>
    </mxGraphModel>
  </diagram>
</mxfile>
